<svg xmlns="http://www.w3.org/2000/svg" viewBox="0 0 136.23 41.37"><defs><style>.cls-1,.cls-2{fill:#fff;}.cls-2{stroke:#fff;stroke-miterlimit:10;stroke-width:0.51px;}</style></defs><g id="Layer_2" data-name="Layer 2"><g id="Layer_1-2" data-name="Layer 1"><polygon class="cls-1" points="55.98 0.9 57.34 0.9 57.34 8.43 55.98 8.43 55.98 5.09 52.71 5.09 52.71 8.43 51.34 8.43 51.34 0.9 52.71 0.9 52.71 3.91 55.98 3.91 55.98 0.9"/><path class="cls-1" d="M63,8.25c-.25.07-.58.13-1,.2a7.9,7.9,0,0,1-1.34.11,2.88,2.88,0,0,1-1.14-.2,1.8,1.8,0,0,1-.74-.54,2.07,2.07,0,0,1-.4-.83,4.41,4.41,0,0,1-.12-1.06V2.75H59.6v3A2.35,2.35,0,0,0,59.87,7a1,1,0,0,0,.93.4l.5,0a2.5,2.5,0,0,0,.4,0V2.75H63Z"/><path class="cls-1" d="M65.86,8.53a3.3,3.3,0,0,1-1-.13,1.43,1.43,0,0,1-.61-.34A1.13,1.13,0,0,1,64,7.51a2.86,2.86,0,0,1-.1-.76V.22L65.18,0V6.5a1.62,1.62,0,0,0,0,.41.62.62,0,0,0,.13.27.64.64,0,0,0,.27.18,1.88,1.88,0,0,0,.43.09Z"/><path class="cls-1" d="M68.31,8.53a3.3,3.3,0,0,1-1-.13,1.43,1.43,0,0,1-.61-.34,1.22,1.22,0,0,1-.32-.55,2.88,2.88,0,0,1-.09-.76V.22L67.63,0V6.5a1.62,1.62,0,0,0,0,.41.62.62,0,0,0,.13.27.64.64,0,0,0,.27.18,1.88,1.88,0,0,0,.43.09Z"/><polygon class="cls-1" points="69.67 0.9 68.93 0.9 68.93 8.43 73.21 8.43 73.21 7.79 69.67 7.79 69.67 0.9"/><path class="cls-1" d="M74,.58a.52.52,0,0,0-.37.14.54.54,0,0,0-.15.4.5.5,0,0,0,.15.39.53.53,0,0,0,.37.15.51.51,0,0,0,.52-.54.54.54,0,0,0-.15-.4A.49.49,0,0,0,74,.58m.36,2.23h-.7V8.43h.7Z"/><path class="cls-1" d="M79.55,2.81h-.71c-.08.39-.19.8-.32,1.23s-.26.88-.41,1.31-.31.84-.46,1.25-.32.75-.47,1.07C77,7.35,76.87,7,76.71,6.6s-.32-.82-.46-1.25S76,4.48,75.83,4s-.23-.84-.32-1.23h-.75c.13.52.28,1,.44,1.52s.33,1,.51,1.47.36.94.55,1.38.38.86.57,1.25h.65c.19-.39.37-.81.57-1.25s.38-.9.55-1.38.35-1,.51-1.47.31-1,.44-1.52"/><path class="cls-1" d="M81.94,2.68a2.42,2.42,0,0,0-.91.18,2.18,2.18,0,0,0-.78.55,2.78,2.78,0,0,0-.55.92,3.54,3.54,0,0,0-.21,1.28,4.38,4.38,0,0,0,.15,1.18A2.28,2.28,0,0,0,81,8.33a3.38,3.38,0,0,0,1.26.22,3.63,3.63,0,0,0,1-.12,2.71,2.71,0,0,0,.57-.21l-.13-.61c-.1,0-.27.11-.49.19a3.22,3.22,0,0,1-.91.1,1.88,1.88,0,0,1-1.52-.55,2.47,2.47,0,0,1-.51-1.58h3.94s0-.11,0-.17a.91.91,0,0,0,0-.17,3,3,0,0,0-.61-2.07,2.13,2.13,0,0,0-1.65-.68M80.26,5.17a2.42,2.42,0,0,1,.14-.71,2,2,0,0,1,.35-.59,1.89,1.89,0,0,1,.52-.41A1.51,1.51,0,0,1,82,3.31a1.33,1.33,0,0,1,1.11.49,2.21,2.21,0,0,1,.41,1.37Z"/><path class="cls-2" d="M10.39,15H6.14V26.11H4.51V15H.25V13.49H10.39Z"/><path class="cls-2" d="M14.74,15V19h6.94v1.47H14.74v4.18h7.87v1.46H13.1V13.49h9.51V15Z"/><path class="cls-2" d="M35.31,24l-2.14,2.13H27.75l-2.43-2.43V15.92l2.43-2.43H33l2.14,2.13-1.1,1.1L32.32,15H28.48L27,16.48v6.64l1.53,1.53h4l1.76-1.77Z"/><path class="cls-2" d="M48.18,13.49V26.11H46.54V20.43H39.67v5.68H38V13.49h1.63V19h6.87V13.49Z"/><path class="cls-2" d="M64.75,23H58.66l-1.28,3.15H55.71L61,13.49h1.56l5.25,12.62H66Zm-.59-1.47-2.45-6-2.45,6Z"/><path class="cls-2" d="M84.36,13.49,80.74,26.11H79.2l-2.8-9.82-2.83,9.82H72L68.39,13.49h1.69l2.81,9.93,2.84-9.93H77.1l2.84,9.93,2.81-9.93Z"/><path class="cls-2" d="M94,23h-6.1l-1.28,3.15H85l5.26-12.62h1.56L97,26.11H95.3Zm-.6-1.47-2.45-6-2.45,6Z"/><path class="cls-2" d="M108.46,26.11l-2.93-5.2h-4.18v5.2H99.71V13.49h8l2,2v3.46l-2,2h-.34l2.94,5.2Zm-7.11-6.66H107l1.08-1.08V16L107,15h-5.62Z"/><path class="cls-2" d="M123.22,15.92v7.76l-2.43,2.43h-7.67V13.49h7.67Zm-1.63.56L120.06,15h-5.31v9.7h5.31l1.53-1.53Z"/><path class="cls-2" d="M136,21v3l-2.08,2.08h-6.08l-2-2,1.1-1.09,1.67,1.67h4.62l1.17-1.17V21.6l-1-1L128,20.25l-1.87-1.88v-2.8l2.08-2.08h5.59l2,2-1.09,1.09L133,15H128.9l-1.17,1.17v1.69l1,1,5.39.37Z"/><path class="cls-1" d="M18.22,30.08V41.37H17.14V36.12h-6.7v5.25H9.36V30.08h1.08v5.06h6.7V30.08Z"/><path class="cls-1" d="M30.18,30.08v9.13L28,41.37H23.72l-2.16-2.16V30.08h1.08v8.76l1.55,1.55h3.37l1.59-1.6V30.08Z"/><path class="cls-1" d="M44.43,41.37H43.35V32.12l-4.07,7.52h-.66l-4-7.52v9.25h-1V30.08h1.09L39,38.16l4.35-8.08h1.1Z"/><path class="cls-1" d="M56.73,37.2v2.42L55,41.37H47.92V30.08h6.74l1.74,1.74v2.56l-1.24,1.24Zm-7.73-2h5.21l1.11-1.11V32.19l-1.13-1.13H49Zm6.65,4.1V37.57l-1.42-1.43H49v4.25h5.52Z"/><path class="cls-1" d="M60.79,31.06v4.1h6.39v1H60.79v4.25H68v1h-8.3V30.08H68v1Z"/><path class="cls-1" d="M78.89,41.37l-2.73-4.83H71.93v4.83H70.85V30.08h7l1.75,1.74v3l-1.75,1.75h-.44l2.73,4.83Zm-7-5.81h5.43l1.13-1.13V32.19l-1.13-1.13H71.93Z"/><path class="cls-1" d="M88,37.85v2.57h6.6v.95H86.94V37.48l1.56-1.54,4-.83L93.57,34V32.2L92.39,31H89.1L87.64,32.5l-.7-.69,1.73-1.73h4.17l1.77,1.78v2.52l-1.56,1.56-4,.83Z"/><path class="cls-1" d="M105.44,32v7.44l-1.93,1.93h-4l-1.93-1.93V32l1.93-1.92h4Zm-1.06,7.09V32.35L103.05,31H99.93l-1.31,1.32v6.74l1.31,1.33h3.12Z"/><path class="cls-1" d="M109.49,37.85v2.57h6.61v.95h-7.67V37.48L110,35.94l4-.83L115.06,34V32.2L113.88,31h-3.29l-1.46,1.47-.7-.69,1.73-1.73h4.17l1.77,1.78v2.52l-1.56,1.56-4,.83Z"/><path class="cls-1" d="M126.93,32v7.44L125,41.37h-4L119,39.44V32L121,30.08h4Zm-1.06,7.09V32.35L124.54,31h-3.12l-1.31,1.32v6.74l1.31,1.33h3.12Z"/></g></g></svg>