<svg id="Layer_1" data-name="Layer 1" xmlns="http://www.w3.org/2000/svg" xmlns:xlink="http://www.w3.org/1999/xlink" viewBox="0 0 992.13 708.66"><defs><style>.cls-1,.cls-10,.cls-11,.cls-6,.cls-9{fill:none;}.cls-2{fill:#9c1b22;}.cls-3{fill:#262626;}.cls-4{fill:#1d1d1b;}.cls-5{clip-path:url(#clip-path);}.cls-6{stroke:#1d1d1b;stroke-width:8px;}.cls-7{fill:#e8671a;}.cls-8{fill:#e63e84;}.cls-10,.cls-11,.cls-9{stroke:#e8671a;stroke-miterlimit:10;}.cls-9{stroke-width:4.45px;}.cls-10{stroke-width:4.45px;}.cls-11{stroke-width:4.45px;}</style><clipPath id="clip-path"><rect class="cls-1" x="-304.67" y="-94.94" width="1599.88" height="900"/></clipPath></defs><title>hull_and_humber_tech_awards_2020_logo</title><polygon class="cls-2" points="444.12 154.28 450.04 154.28 450.04 186.88 444.12 186.88 444.12 172.44 429.96 172.44 429.96 186.88 424.03 186.88 424.03 154.28 429.96 154.28 429.96 167.31 444.12 167.31 444.12 154.28 444.12 154.28"/><path class="cls-2" d="M474.61,186.13c-1.1.28-2.52.57-4.28.87a35.56,35.56,0,0,1-5.78.44,12.9,12.9,0,0,1-5-.84,8,8,0,0,1-3.2-2.36,9.14,9.14,0,0,1-1.71-3.59,18.91,18.91,0,0,1-.52-4.59V162.28h5.69v12.88c0,2.64.39,4.52,1.15,5.65s2.11,1.69,4,1.69c.69,0,1.41,0,2.18-.09a10.48,10.48,0,0,0,1.72-.24V162.28h5.69v23.85Z"/><path class="cls-2" d="M487,187.35a15.18,15.18,0,0,1-4.21-.57,6.38,6.38,0,0,1-2.66-1.48,5.24,5.24,0,0,1-1.39-2.4,12.42,12.42,0,0,1-.39-3.27V151.32l5.69-.94v28.17a7.81,7.81,0,0,0,.16,1.74,2.82,2.82,0,0,0,.59,1.2,2.62,2.62,0,0,0,1.15.75,9,9,0,0,0,1.86.41l-.8,4.7Z"/><path class="cls-2" d="M497.57,187.35a15.18,15.18,0,0,1-4.21-.57,6.38,6.38,0,0,1-2.66-1.48,5.22,5.22,0,0,1-1.38-2.4,12,12,0,0,1-.4-3.27V151.32l5.69-.94v28.17a7.81,7.81,0,0,0,.16,1.74,2.82,2.82,0,0,0,.59,1.2,2.62,2.62,0,0,0,1.15.75,9,9,0,0,0,1.86.41l-.8,4.7Z"/><polygon class="cls-3" points="503.46 154.28 500.26 154.28 500.26 186.88 518.79 186.88 518.79 184.1 503.46 184.1 503.46 154.28 503.46 154.28"/><path class="cls-3" d="M523.73,162.56h-3.06v24.32h3.06V162.56Zm-1.55-9.69a2.23,2.23,0,0,0-1.6.63,2.57,2.57,0,0,0,0,3.44,2.35,2.35,0,0,0,3.2,0,2.57,2.57,0,0,0,0-3.44,2.23,2.23,0,0,0-1.6-.63"/><path class="cls-3" d="M546.25,162.56h-3.06q-.57,2.49-1.39,5.34c-.55,1.89-1.15,3.78-1.8,5.64s-1.31,3.67-2,5.41-1.37,3.29-2,4.64q-1-2-2-4.64t-2-5.41c-.64-1.86-1.24-3.75-1.79-5.64s-1-3.68-1.39-5.34H525.5q.86,3.34,1.9,6.58c.69,2.17,1.43,4.28,2.2,6.35s1.57,4.07,2.39,6,1.64,3.72,2.46,5.41h2.85c.79-1.69,1.6-3.5,2.44-5.41s1.64-3.91,2.41-6,1.51-4.18,2.2-6.35,1.33-4.35,1.9-6.58"/><path class="cls-3" d="M549.32,172.77a10.42,10.42,0,0,1,.63-3.06,8,8,0,0,1,1.51-2.56,7.42,7.42,0,0,1,2.25-1.77,6.42,6.42,0,0,1,2.94-.66,5.8,5.8,0,0,1,4.8,2.12,9.64,9.64,0,0,1,1.79,5.93ZM556.61,162a10.28,10.28,0,0,0-3.93.78,9.47,9.47,0,0,0-3.39,2.38,12.16,12.16,0,0,0-2.4,4,15.49,15.49,0,0,0-.91,5.57,18.71,18.71,0,0,0,.65,5.11,10.48,10.48,0,0,0,2.12,4,9.76,9.76,0,0,0,3.72,2.64,14.27,14.27,0,0,0,5.45.94,15.81,15.81,0,0,0,4.26-.52,12.31,12.31,0,0,0,2.47-.9l-.56-2.63a16.14,16.14,0,0,1-2.12.8,13.42,13.42,0,0,1-4,.47q-4.51,0-6.59-2.4c-1.38-1.6-2.11-3.89-2.21-6.87H566.3c0-.22.05-.45.07-.7s0-.5,0-.75q0-6.08-2.66-9a9.17,9.17,0,0,0-7.12-2.92"/><path class="cls-4" d="M341,479.85v21.7h55.72v8H332.08V476.77l13.16-13,33.6-7,9.1-9.1v-15.4L378,422.31H350.28L338,434.77l-5.88-5.88,14.56-14.56h35.14l15,15v21.28L383.6,463.75l-33.6,7Z"/><path class="cls-4" d="M488,430.57v62.72L471.8,509.53h-34l-16.24-16.24V430.57l16.24-16.24h34Zm-9,59.78V433.51l-11.2-11.2H441.56l-11.06,11.2v56.84l11.06,11.2h26.32Z"/><path class="cls-4" d="M522.2,479.85v21.7h55.72v8H513.24V476.77l13.16-13,33.6-7,9.1-9.1v-15.4l-9.94-9.94H531.44l-12.32,12.46-5.88-5.88,14.56-14.56h35.14l15,15v21.28l-13.16,13.16-33.6,7Z"/><path class="cls-4" d="M669.2,430.57v62.72L653,509.53h-34L602.7,493.29V430.57l16.24-16.24h34Zm-9,59.78V433.51L649,422.31H622.72l-11.06,11.2v56.84l11.06,11.2H649Z"/><path class="cls-4" d="M393.07,339.78V384h-4.23V363.44H362.58V384h-4.22v-44.2h4.22v19.83h26.26V339.78Z"/><path class="cls-4" d="M439.87,339.78v35.75L431.48,384h-16.9l-8.45-8.45V339.78h4.23V374.1l6,6h13.2l6.24-6.24V339.78Z"/><path class="cls-4" d="M495.64,384h-4.23v-36.2l-15.92,29.44h-2.6L457,347.78V384h-4.1v-44.2h4.29l17.1,31.66,17-31.66h4.29Z"/><path class="cls-4" d="M543.8,367.67v9.49L537,384H509.29v-44.2h26.39l6.82,6.83v10l-4.87,4.87Zm-30.29-8h20.41l4.36-4.35V348l-4.42-4.42H513.51Zm26.07,16.06V369.1L534,363.51H513.51v16.64h21.65Z"/><path class="cls-4" d="M559.66,343.62v16.05h25v3.84h-25v16.64h28.28V384h-32.5v-44.2h32.5v3.84Z"/><path class="cls-4" d="M630.51,384l-10.66-18.91H603.28V384h-4.23v-44.2h27.3l6.83,6.83v11.63l-6.83,6.83H624.6L635.32,384Zm-27.23-22.75h21.25l4.42-4.42V348l-4.42-4.42H603.28Z"/><g class="cls-5"><path class="cls-6" d="M105.68,241.81h-26v68.93H72.38V241.81h-26v-6.54h59.27Z"/><path class="cls-6" d="M139.31,241.81v27.42H182v6.55H139.31v28.41h48.28v6.55H132.1V235.27h55.49v6.54Z"/><path class="cls-6" d="M269,298l-12.76,12.76h-31l-14.43-14.43V249.69l14.43-14.42h30.19L268.24,248l-4.77,4.77-11.1-11h-24l-10.32,10.33v41.73l10.32,10.32h24.75l11.1-11Z"/><path class="cls-6" d="M354.82,235.27v75.47h-7.21V275.67H302.77v35.07h-7.22V235.27h7.22v33.85h44.84V235.27Z"/><path class="cls-6" d="M477.73,290.32H439.1l-8.54,20.42h-7.44l32-75.47H462L494,310.74h-7.77ZM475,283.77l-16.54-39.51-16.53,39.51Z"/><path class="cls-6" d="M600.16,235.27l-22.09,75.47h-6.66L553,248l-18.31,62.71H527.9l-22.09-75.47h7.44l18.31,63.26,18.54-63.26h6.1l18.43,63.26,18.31-63.26Z"/><path class="cls-6" d="M666.65,290.32H628l-8.54,20.42H612l32-75.47h6.88L683,310.74h-7.77Zm-2.78-6.55-16.54-39.51L630.8,283.77Z"/><path class="cls-6" d="M763.13,310.74l-18.21-32.3h-28.3v32.3h-7.21V235.27H756l11.66,11.65v19.87L756,278.44h-3l18.31,32.3Zm-46.51-38.85h36.29l7.55-7.54v-15l-7.55-7.55H716.62Z"/><path class="cls-6" d="M857.14,249.69v46.62l-14.43,14.43H798.09V235.27h44.62Zm-7.21,2.45L839.6,241.81H805.31v62.38H839.6l10.33-10.32Z"/><path class="cls-6" d="M942,281.11v17.31l-12.21,12.32h-34.4l-12.21-12.21,4.88-4.88,10.43,10.54h28.08l8.22-8.21V283.55L928,276.78l-32.19-2.33-10.77-10.77V247.59l12.21-12.32h31.41L940.45,247l-4.77,4.88-10.1-10.1H900.49L892.28,250v11.21l6.77,6.77,32.19,2.33Z"/></g><path class="cls-4" d="M105.68,241.81h-26v68.93H72.38V241.81h-26v-6.54h59.27Z"/><path class="cls-4" d="M139.31,241.81v27.42H182v6.55H139.31v28.41h48.28v6.55H132.1V235.27h55.49v6.54Z"/><path class="cls-4" d="M269,298l-12.76,12.76h-31l-14.43-14.43V249.69l14.43-14.42h30.19L268.24,248l-4.77,4.77-11.1-11h-24l-10.32,10.33v41.73l10.32,10.32h24.75l11.1-11Z"/><path class="cls-4" d="M354.82,235.27v75.47h-7.21V275.67H302.77v35.07h-7.22V235.27h7.22v33.85h44.84V235.27Z"/><path class="cls-4" d="M477.73,290.32H439.1l-8.54,20.42h-7.44l32-75.47H462L494,310.74h-7.77ZM475,283.77l-16.54-39.51-16.53,39.51Z"/><path class="cls-4" d="M600.16,235.27l-22.09,75.47h-6.66L553,248l-18.31,62.71H527.9l-22.09-75.47h7.44l18.31,63.26,18.54-63.26h6.1l18.43,63.26,18.31-63.26Z"/><path class="cls-4" d="M666.65,290.32H628l-8.54,20.42H612l32-75.47h6.88L683,310.74h-7.77Zm-2.78-6.55-16.54-39.51L630.8,283.77Z"/><path class="cls-4" d="M763.13,310.74l-18.21-32.3h-28.3v32.3h-7.21V235.27H756l11.66,11.65v19.87L756,278.44h-3l18.31,32.3Zm-46.51-38.85h36.29l7.55-7.54v-15l-7.55-7.55H716.62Z"/><path class="cls-4" d="M857.14,249.69v46.62l-14.43,14.43H798.09V235.27h44.62Zm-7.21,2.45L839.6,241.81H805.31v62.38H839.6l10.33-10.32Z"/><path class="cls-4" d="M942,281.11v17.31L929.8,310.74H895.39l-12.21-12.21,4.89-4.88,10.43,10.54h28.08L934.8,296V283.55L928,276.78l-32.19-2.33-10.77-10.77V247.59l12.21-12.32h31.41L940.46,247l-4.78,4.88-10.1-10.1H900.5L892.29,250v11.21l6.77,6.77,32.18,2.33Z"/><path class="cls-7" d="M175.74,434.85a332.18,332.18,0,0,0,87.6,154.07,337.74,337.74,0,0,0,25.91,23.37l2.81-3.46a332.79,332.79,0,0,1-25.57-23.06,327.8,327.8,0,0,1-86.44-152l-4.31,1.08Z"/><path class="cls-8" d="M531.6,685.16a332.48,332.48,0,0,0,203.89-96.24q5.84-5.82,11.31-11.87l-3.29-3q-5.41,6-11.16,11.71a328.07,328.07,0,0,1-201.18,95l.43,4.43Z"/><path class="cls-7" d="M405.17,80.52A288.68,288.68,0,0,1,666.34,118l7.75-10.87A302,302,0,0,0,400.81,67.9l4.36,12.62Z"/><path class="cls-8" d="M318.12,593.74A290.46,290.46,0,0,0,410.26,640c32.54,9.75,66.37,14.14,100,14.14,36.87,0,73.48-8.05,107.86-23.08a309.49,309.49,0,0,0,94.49-65,300.53,300.53,0,0,0,64.15-94.78L764.46,466a287.21,287.21,0,0,1-61.31,90.57,296.2,296.2,0,0,1-90.4,62.23c-32.79,14.34-67.59,22-102.51,22-32.45,0-65-4.24-96.15-13.57a276.9,276.9,0,0,1-87.93-44.11l-8,10.66Z"/><path class="cls-7" d="M171.42,435.94A336.73,336.73,0,0,0,260.2,592.07l9.44-9.44a323.28,323.28,0,0,1-85.27-149.95l-13,3.26Z"/><path class="cls-7" d="M407.21,678.41A337.82,337.82,0,0,0,453.49,688a342.1,342.1,0,0,0,42.51,3.1l.14-13.35a326.8,326.8,0,0,1-85.31-12.23l-3.62,12.85Z"/><path class="cls-8" d="M581.14,681.19a336.76,336.76,0,0,0,157.5-89.12l-9.44-9.44a323.4,323.4,0,0,1-151.27,85.6l3.21,13Z"/><path class="cls-7" d="M774.77,549.49A335.8,335.8,0,0,0,819,464.08l-12.61-4.38a322.45,322.45,0,0,1-42.47,82l10.85,7.77Z"/><path class="cls-8" d="M247.7,147.3q10.25-12.53,21.94-24.23A323.37,323.37,0,0,1,417.33,38.38L414,25.45A336.86,336.86,0,0,0,260.2,113.63Q248,125.79,237.37,138.85l10.33,8.45Z"/><path class="cls-7" d="M656.26,68.15a325.16,325.16,0,0,1,72.94,54.92q4,4,7.75,8l9.76-9.11q-4-4.23-8.07-8.35a338.64,338.64,0,0,0-75.93-57.17l-6.45,11.69Z"/><path class="cls-7" d="M302.24,136.72A290.93,290.93,0,0,1,403.72,76.31c32.58-11.25,66.79-16,101-16,68.18,0,136.06,26.14,190.19,74.83l3-3.31c-54.92-49.4-123.85-76-193.17-76-34.58,0-69.29,4.78-102.42,16.22a295.27,295.27,0,0,0-103,61.32l3,3.29Z"/><path class="cls-8" d="M213.93,434.92q3.1,10.89,7.08,21.57,2,5.34,4.18,10.63,3.3,7.94,7.08,15.71,3.91,8,8.34,15.88,4.84,8.6,10.31,16.92,7.41,11.28,15.94,22l3.48-2.77q-8.4-10.56-15.7-21.68-5.38-8.21-10.16-16.67-4.35-7.72-8.21-15.64-3.72-7.65-7-15.47-2.16-5.21-4.12-10.47-3.9-10.51-7-21.24l-4.27,1.22Z"/><path class="cls-8" d="M289.41,562.86a297.08,297.08,0,0,0,495.5-127.94l-4.28-1.22a292.61,292.61,0,0,1-488.08,126l-3.14,3.15Z"/><path class="cls-8" d="M299.41,620.21a331.27,331.27,0,0,0,44.24,28l2.08-3.94a326.81,326.81,0,0,1-43.66-27.65l-2.66,3.56Z"/><path class="cls-7" d="M763.07,557.73A331.66,331.66,0,0,0,816.36,458l-4.23-1.4A326.89,326.89,0,0,1,759.55,555l3.52,2.74Z"/><path class="cls-7" d="M464.25,25.31q4-.42,8-.75l-.37-4.44q-4,.33-8.06.77l.47,4.42Z"/><path class="cls-7" d="M495.86,23.46c1.18,0,2.37,0,3.56,0q5.43,0,10.86.18,7.25.22,14.47.79c3.54.27,7.06.6,10.59,1q6.1.66,12.2,1.56l.65-4.4Q542,21.64,535.82,21c-3.57-.39-7.15-.73-10.73-1q-7.32-.55-14.67-.8c-3.67-.12-7.33-.18-11-.18-1.21,0-2.41,0-3.61,0l.05,4.45Z"/><path class="cls-8" d="M569.9,31q6.54,1.44,13,3.13t13,3.69q6.4,2,12.75,4.18,4.56,1.6,9.08,3.34,4.83,1.86,9.61,3.87l1.73-4.1q-4.85-2-9.74-3.92-4.59-1.77-9.21-3.39-6.42-2.25-12.92-4.24t-13.22-3.74q-6.57-1.71-13.21-3.16l-1,4.35Z"/><path class="cls-7" d="M751.74,134.25q-8.61-10.08-18.14-19.62l-3.14,3.15q9.4,9.41,17.89,19.36l3.39-2.89Z"/><path class="cls-8" d="M230.59,161.71q3.89-5.46,8-10.77t8.52-10.54q4.31-5.11,8.85-10.08c2.17-2.38,4.39-4.73,6.63-7q3.62-3.72,7.34-7.33l-3.09-3.2q-3.78,3.66-7.44,7.43-3.42,3.52-6.73,7.14-4.59,5-9,10.22t-8.63,10.68q-4.16,5.37-8.09,10.91l3.62,2.58Z"/><path class="cls-9" d="M824.81,422.17a329.82,329.82,0,0,0,8.27-78.32"/><path class="cls-10" d="M172.36,411.13a329.52,329.52,0,0,1-5.06-57.4"/><path class="cls-11" d="M789.68,195.62a330,330,0,0,0-28-44.31"/><path class="cls-10" d="M287.69,150.29a330,330,0,0,0-28.21,36.24"/></svg>