<svg version="1.1" id="Layer_1" xmlns="http://www.w3.org/2000/svg" xmlns:xlink="http://www.w3.org/1999/xlink" x="0px" y="0px"
	 viewBox="0 0 992.1 708.7" style="enable-background:new 0 0 992.1 708.7;" xml:space="preserve">
<style type="text/css">
	.st0{fill:#FFFFFF;}
	.st1{clip-path:url(#SVGID_2_);}
	.st2{fill:none;stroke:#FFFFFF;stroke-width:8;}
	.st3{fill:none;stroke:#FFFFFF;stroke-width:4.45;stroke-miterlimit:10;}
</style>
<polygon class="st0" points="397.9,141 409.2,141 409.2,203.1 397.9,203.1 397.9,175.6 370.9,175.6 370.9,203.1 359.6,203.1 
	359.6,141 370.9,141 370.9,165.9 397.9,165.9 397.9,141 "/>
<path class="st0" d="M456,201.7c-2.1,0.5-4.8,1.1-8.2,1.7c-3.6,0.6-7.3,0.9-11,0.8c-3.2,0.1-6.5-0.4-9.5-1.6c-2.4-1-4.5-2.5-6.1-4.5
	c-1.6-2-2.7-4.3-3.3-6.8c-0.7-2.9-1-5.8-1-8.7v-26.3h10.8v24.5c0,5,0.7,8.6,2.2,10.8s4,3.2,7.6,3.2c1.3,0,2.7,0,4.2-0.2
	c1.1-0.1,2.2-0.2,3.3-0.5v-37.9h10.8v45.4H456z"/>
<path class="st0" d="M479.6,204c-2.7,0-5.4-0.3-8-1.1c-1.9-0.5-3.6-1.5-5.1-2.8c-1.3-1.3-2.2-2.8-2.6-4.6c-0.5-2-0.8-4.1-0.7-6.2
	v-53.9l10.8-1.8v53.7c0,1.1,0.1,2.2,0.3,3.3c0.2,0.8,0.6,1.6,1.1,2.3c0.6,0.7,1.3,1.2,2.2,1.4c1.2,0.4,2.3,0.6,3.5,0.8L479.6,204
	L479.6,204z"/>
<path class="st0" d="M499.7,204c-2.7,0-5.4-0.3-8-1.1c-1.9-0.5-3.6-1.5-5.1-2.8c-1.3-1.3-2.2-2.8-2.6-4.6c-0.5-2-0.8-4.1-0.8-6.2
	v-53.9l10.8-1.8v53.7c0,1.1,0.1,2.2,0.3,3.3c0.2,0.8,0.6,1.6,1.1,2.3c0.6,0.7,1.3,1.2,2.2,1.4c1.2,0.4,2.3,0.6,3.5,0.8L499.7,204z"
	/>
<polygon class="st0" points="510.9,141 504.8,141 504.8,203.1 540.1,203.1 540.1,197.8 510.9,197.8 510.9,141 "/>
<path class="st0" d="M549.5,156.8h-5.8v46.3h5.8V156.8z M546.6,138.3c-1.1,0-2.2,0.4-3,1.2c-1.7,1.9-1.7,4.7,0,6.6
	c1.7,1.6,4.4,1.6,6.1,0c1.7-1.9,1.7-4.7,0-6.6C548.8,138.8,547.7,138.3,546.6,138.3"/>
<path class="st0" d="M592.5,156.8h-5.8c-0.7,3.2-1.6,6.6-2.6,10.2c-1,3.6-2.2,7.2-3.4,10.7c-1.2,3.5-2.5,7-3.8,10.3
	s-2.6,6.3-3.8,8.8c-1.3-2.5-2.5-5.5-3.8-8.8c-1.3-3.4-2.5-6.8-3.8-10.3c-1.2-3.5-2.4-7.1-3.4-10.7s-1.9-7-2.6-10.2h-6.3
	c1.1,4.2,2.3,8.4,3.6,12.5c1.3,4.1,2.7,8.2,4.2,12.1s3,7.8,4.6,11.4c1.6,3.7,3.1,7.1,4.7,10.3h5.4c1.5-3.2,3-6.7,4.6-10.3
	s3.1-7.4,4.6-11.4c1.5-4,2.9-8,4.2-12.1C590.1,165.2,591.4,161.1,592.5,156.8"/>
<path class="st0" d="M598.3,176.3c0.1-2,0.5-4,1.2-5.8c0.6-1.8,1.6-3.4,2.9-4.9c1.2-1.4,2.7-2.5,4.3-3.4c1.7-0.9,3.7-1.3,5.6-1.3
	c3.5-0.2,6.9,1.3,9.1,4c2.3,3.3,3.5,7.3,3.4,11.3L598.3,176.3z M612.2,155.7c-2.6,0-5.1,0.5-7.5,1.5c-2.5,1-4.7,2.6-6.5,4.5
	c-2,2.2-3.6,4.8-4.6,7.6c-1.2,3.4-1.8,7-1.7,10.6c0,3.3,0.4,6.6,1.2,9.7c0.8,2.8,2.2,5.4,4,7.6c1.9,2.2,4.4,3.9,7.1,5
	c3.3,1.3,6.8,1.9,10.4,1.8c2.7,0,5.5-0.3,8.1-1c1.6-0.4,3.2-1,4.7-1.7l-1.1-5c-1.3,0.6-2.7,1.1-4,1.5c-2.5,0.7-5,1-7.6,0.9
	c-5.7,0-9.9-1.5-12.6-4.6c-2.6-3-4-7.4-4.2-13.1h32.6c0-0.4,0.1-0.9,0.1-1.3c0-0.5,0-1,0-1.4c0-7.7-1.7-13.4-5.1-17.1
	C622.2,157.6,617.3,155.5,612.2,155.7"/>
<path class="st0" d="M341,479.9v21.7h55.7v8h-64.6v-32.8l13.2-13l33.6-7l9.1-9.1v-15.4l-9.9-10h-27.7L338,434.8l-5.9-5.9l14.6-14.6
	h35.1l15,15v21.3l-13.2,13.1l-33.6,7L341,479.9z"/>
<path class="st0" d="M488,430.6v62.7l-16.2,16.2h-34l-16.2-16.2v-62.7l16.2-16.2h34L488,430.6z M479,490.4v-56.8l-11.2-11.2h-26.2
	l-11.1,11.2v56.8l11.1,11.2h26.3L479,490.4z"/>
<path class="st0" d="M522.2,479.9v21.7h55.7v8h-64.7v-32.8l13.2-13l33.6-7l9.1-9.1v-15.4l-9.9-9.9h-27.7l-12.3,12.5l-5.9-5.9
	l14.6-14.6h35.1l15,15v21.3l-13.2,13.2l-33.6,7L522.2,479.9z"/>
<path class="st0" d="M669.2,430.6v62.7L653,509.5h-34l-16.3-16.2v-62.7l16.2-16.2h34L669.2,430.6z M660.2,490.4v-56.8L649,422.3
	h-26.3l-11.1,11.2v56.8l11.1,11.2H649L660.2,490.4z"/>
<path class="st0" d="M393.1,339.8V384h-4.2v-20.6h-26.3V384h-4.2v-44.2h4.2v19.8h26.3v-19.8H393.1z"/>
<path class="st0" d="M439.9,339.8v35.8l-8.4,8.5h-16.9l-8.5-8.5v-35.8h4.2v34.3l6,6h13.2l6.2-6.2v-34.1H439.9z"/>
<path class="st0" d="M495.6,384h-4.2v-36.2l-15.9,29.4h-2.6L457,347.8V384h-4.1v-44.2h4.3l17.1,31.7l17-31.7h4.3L495.6,384z"/>
<path class="st0" d="M543.8,367.7v9.5L537,384h-27.7v-44.2h26.4l6.8,6.8v10l-4.9,4.9L543.8,367.7z M513.5,359.7h20.4l4.4-4.4V348
	l-4.4-4.4h-20.3V359.7z M539.6,375.7v-6.6l-5.6-5.6h-20.5v16.6h21.7L539.6,375.7z"/>
<path class="st0" d="M559.7,343.6v16h25v3.8h-25v16.6h28.3v3.9h-32.5v-44.2h32.5v3.8L559.7,343.6z"/>
<path class="st0" d="M630.5,384l-10.7-18.9h-16.6V384h-4.2v-44.2h27.3l6.8,6.8v11.6l-6.8,6.8h-1.8l10.7,18.9H630.5z M603.3,361.2
	h21.2l4.4-4.4V348l-4.4-4.4h-21.2V361.2z"/>
<g>
	<defs>
		<rect id="SVGID_1_" x="-304.7" y="-94.9" width="1599.9" height="900"/>
	</defs>
	<clipPath id="SVGID_2_">
		<use xlink:href="#SVGID_1_"  style="overflow:visible;"/>
	</clipPath>
	<g class="st1">
		<path class="st2" d="M105.7,241.8h-26v68.9h-7.3v-68.9h-26v-6.5h59.3L105.7,241.8z"/>
		<path class="st2" d="M139.3,241.8v27.4H182v6.5h-42.7v28.4h48.3v6.5h-55.5v-75.5h55.5v6.5H139.3z"/>
		<path class="st2" d="M269,298l-12.8,12.8h-31l-14.4-14.4v-46.6l14.4-14.4h30.2l12.8,12.7l-4.8,4.8l-11.1-11h-24L218,252.1v41.7
			l10.3,10.3h24.8l11.1-11L269,298z"/>
		<path class="st2" d="M354.8,235.3v75.5h-7.2v-35.1h-44.8v35.1h-7.2v-75.5h7.2v33.8h44.8v-33.8H354.8z"/>
		<path class="st2" d="M477.7,290.3h-38.6l-8.5,20.4h-7.4l32-75.5h6.9l32,75.5h-7.8L477.7,290.3z M475,283.8l-16.5-39.5l-16.5,39.5
			H475z"/>
		<path class="st2" d="M600.2,235.3l-22.1,75.5h-6.7L553,248l-18.3,62.7h-6.8l-22.1-75.5h7.4l18.3,63.3l18.5-63.3h6.1l18.4,63.3
			l18.3-63.3L600.2,235.3z"/>
		<path class="st2" d="M666.7,290.3H628l-8.5,20.4H612l32-75.5h6.9l32.1,75.5h-7.8L666.7,290.3z M663.9,283.8l-16.5-39.5l-16.5,39.5
			L663.9,283.8z"/>
		<path class="st2" d="M763.1,310.7l-18.2-32.3h-28.3v32.3h-7.2v-75.5H756l11.7,11.6v19.9L756,278.4h-3l18.3,32.3H763.1z
			 M716.6,271.9h36.3l7.5-7.5v-15l-7.5-7.6h-36.3V271.9z"/>
		<path class="st2" d="M857.1,249.7v46.6l-14.4,14.4h-44.6v-75.5h44.6L857.1,249.7z M849.9,252.1l-10.3-10.3h-34.3v62.4h34.3
			l10.3-10.3V252.1z"/>
		<path class="st2" d="M942,281.1v17.3l-12.2,12.3h-34.4l-12.2-12.2l4.9-4.9l10.4,10.5h28.1l8.2-8.2v-12.4l-6.8-6.8l-32.2-2.3
			L885,263.7v-16.1l12.2-12.3h31.4l11.8,11.7l-4.8,4.9l-10.1-10.1h-25.1l-8.2,8.2v11.2l6.8,6.8l32.2,2.3L942,281.1z"/>
	</g>
</g>
<path class="st0" d="M105.7,241.8h-26v68.9h-7.3v-68.9h-26v-6.5h59.3L105.7,241.8z"/>
<path class="st0" d="M139.3,241.8v27.4H182v6.5h-42.7v28.4h48.3v6.5h-55.5v-75.5h55.5v6.5H139.3z"/>
<path class="st0" d="M269,298l-12.8,12.8h-31l-14.4-14.4v-46.6l14.4-14.4h30.2l12.8,12.7l-4.8,4.8l-11.1-11h-24L218,252.1v41.7
	l10.3,10.3h24.8l11.1-11L269,298z"/>
<path class="st0" d="M354.8,235.3v75.5h-7.2v-35.1h-44.8v35.1h-7.2v-75.5h7.2v33.8h44.8v-33.8H354.8z"/>
<path class="st0" d="M477.7,290.3h-38.6l-8.5,20.4h-7.4l32-75.5h6.9l32,75.5h-7.8L477.7,290.3z M475,283.8l-16.5-39.5l-16.5,39.5
	H475z"/>
<path class="st0" d="M600.2,235.3l-22.1,75.5h-6.7L553,248l-18.3,62.7h-6.8l-22.1-75.5h7.4l18.3,63.3l18.5-63.3h6.1l18.4,63.3
	l18.3-63.3L600.2,235.3z"/>
<path class="st0" d="M666.7,290.3H628l-8.5,20.4H612l32-75.5h6.9l32.1,75.5h-7.8L666.7,290.3z M663.9,283.8l-16.5-39.5l-16.5,39.5
	L663.9,283.8z"/>
<path class="st0" d="M763.1,310.7l-18.2-32.3h-28.3v32.3h-7.2v-75.5H756l11.7,11.6v19.9L756,278.4h-3l18.3,32.3H763.1z M716.6,271.9
	h36.3l7.5-7.5v-15l-7.5-7.6h-36.3V271.9z"/>
<path class="st0" d="M857.1,249.7v46.6l-14.4,14.4h-44.6v-75.5h44.6L857.1,249.7z M849.9,252.1l-10.3-10.3h-34.3v62.4h34.3
	l10.3-10.3V252.1z"/>
<path class="st0" d="M942,281.1v17.3l-12.2,12.3h-34.4l-12.2-12.2l4.9-4.9l10.4,10.5h28.1l8.2-8.2v-12.5l-6.8-6.8l-32.2-2.3
	L885,263.7v-16.1l12.2-12.3h31.4l11.8,11.7l-4.8,4.9l-10.1-10.1h-25.1l-8.2,8.2v11.2l6.8,6.8l32.2,2.3L942,281.1z"/>
<path class="st0" d="M175.7,434.9c14.7,58.3,45,111.6,87.6,154.1c8.2,8.2,16.9,16,25.9,23.4l2.8-3.5c-8.9-7.2-17.5-14.9-25.6-23.1
	c-42-41.9-71.9-94.4-86.4-152L175.7,434.9L175.7,434.9z"/>
<path class="st0" d="M531.6,685.2c77.1-7.4,149.2-41.4,203.9-96.2c3.9-3.9,7.7-7.8,11.3-11.9l-3.3-3c-3.6,4-7.3,7.9-11.2,11.7
	c-53.9,54.1-125.1,87.7-201.2,95L531.6,685.2L531.6,685.2z"/>
<path class="st0" d="M405.2,80.5c88-30.3,185.2-16.4,261.2,37.5l7.8-10.9c-79.4-56.4-181.2-71-273.3-39.2L405.2,80.5L405.2,80.5z"/>
<path class="st0" d="M318.1,593.7c27.7,20.8,58.9,36.5,92.1,46.3c32.5,9.8,66.4,14.1,100,14.1c36.9,0,73.5-8,107.9-23.1
	c35.3-15.6,67.3-37.6,94.5-65c27.3-27.2,49-59.4,64.2-94.8l-12.3-5.3c-14.4,33.8-35.3,64.6-61.3,90.6c-26,26.2-56.7,47.3-90.4,62.2
	c-32.8,14.3-67.6,22-102.5,22c-32.5,0-65-4.2-96.1-13.6c-31.7-9.3-61.5-24.3-87.9-44.1L318.1,593.7L318.1,593.7z"/>
<path class="st0" d="M171.4,435.9c14.9,59.1,45.6,113.1,88.8,156.1l9.4-9.4c-41.5-41.3-71-93.2-85.3-150L171.4,435.9L171.4,435.9z"
	/>
<path class="st0" d="M407.2,678.4c15.2,4.3,30.6,7.5,46.3,9.6c14.1,1.9,28.3,3,42.5,3.1l0.1-13.3c-28.9-0.3-57.5-4.4-85.3-12.2
	L407.2,678.4L407.2,678.4z"/>
<path class="st0" d="M581.1,681.2c59.6-14.8,114.1-45.6,157.5-89.1l-9.4-9.4c-41.7,41.8-94,71.4-151.3,85.6L581.1,681.2L581.1,681.2
	z"/>
<path class="st0" d="M774.8,549.5c18.8-26.2,33.7-55,44.2-85.4l-12.6-4.4c-10.1,29.2-24.5,56.8-42.5,82L774.8,549.5L774.8,549.5z"/>
<path class="st0" d="M247.7,147.3c6.8-8.4,14.1-16.4,21.9-24.2c40.8-40.9,91.8-70.2,147.7-84.7L414,25.4
	C355.8,40.6,302.7,71,260.2,113.6c-8.1,8.1-15.7,16.5-22.8,25.2L247.7,147.3z"/>
<path class="st0" d="M656.3,68.1c26.8,14.8,51.3,33.3,72.9,54.9c2.7,2.7,5.2,5.3,7.8,8l9.8-9.1c-2.7-2.8-5.4-5.6-8.1-8.3
	c-22.5-22.5-48.1-41.8-75.9-57.2L656.3,68.1L656.3,68.1z"/>
<path class="st0" d="M302.2,136.7c29.3-26.9,63.9-47.4,101.5-60.4c32.6-11.2,66.8-16,101-16c68.2,0,136.1,26.1,190.2,74.8l3-3.3
	c-54.9-49.4-123.8-76-193.2-76c-34.6,0-69.3,4.8-102.4,16.2c-38.2,13.2-73.2,34.1-103,61.3L302.2,136.7L302.2,136.7z"/>
<path class="st0" d="M213.9,434.9c2.1,7.3,4.4,14.5,7.1,21.6c1.3,3.6,2.7,7.1,4.2,10.6c2.2,5.3,4.6,10.5,7.1,15.7
	c2.6,5.3,5.4,10.6,8.3,15.9c3.2,5.7,6.7,11.4,10.3,16.9c4.9,7.5,10.3,14.9,15.9,22l3.5-2.8c-5.6-7-10.8-14.3-15.7-21.7
	c-3.6-5.5-7-11-10.2-16.7c-2.9-5.1-5.6-10.4-8.2-15.6c-2.5-5.1-4.8-10.3-7-15.5c-1.4-3.5-2.8-7-4.1-10.5c-2.6-7-4.9-14.1-7-21.2
	L213.9,434.9L213.9,434.9z"/>
<path class="st0" d="M289.4,562.9c116,116,304.1,115.9,420.1-0.1c35.5-35.5,61.5-79.5,75.4-127.8l-4.3-1.2
	C735.9,589,573.8,678.7,418.5,634c-47.6-13.7-90.9-39.3-126-74.3L289.4,562.9L289.4,562.9z"/>
<path class="st0" d="M299.4,620.2c14,10.5,28.8,19.8,44.2,28l2.1-3.9c-15.3-8-29.9-17.3-43.7-27.7L299.4,620.2L299.4,620.2z"/>
<path class="st0" d="M763.1,557.7c23.3-29.9,41.4-63.7,53.3-99.7l-4.2-1.4c-11.8,35.6-29.5,68.9-52.6,98.4L763.1,557.7L763.1,557.7z
	"/>
<path class="st0" d="M464.2,25.3c2.7-0.3,5.3-0.5,8-0.8l-0.4-4.4c-2.7,0.2-5.4,0.5-8.1,0.8L464.2,25.3L464.2,25.3z"/>
<path class="st0" d="M495.9,23.5c1.2,0,2.4,0,3.6,0c3.6,0,7.2,0.1,10.9,0.2c4.8,0.1,9.7,0.4,14.5,0.8c3.5,0.3,7.1,0.6,10.6,1
	c4.1,0.4,8.1,1,12.2,1.6l0.7-4.4c-4.1-0.6-8.2-1.2-12.4-1.6c-3.6-0.4-7.2-0.7-10.7-1c-4.9-0.4-9.8-0.6-14.7-0.8
	c-3.7-0.1-7.3-0.2-11-0.2c-1.2,0-2.4,0-3.6,0L495.9,23.5L495.9,23.5z"/>
<path class="st0" d="M569.9,31c4.4,1,8.7,2,13,3.1c4.3,1.1,8.6,2.4,13,3.7c4.3,1.3,8.5,2.7,12.8,4.2c3,1.1,6.1,2.2,9.1,3.3
	c3.2,1.2,6.4,2.5,9.6,3.9l1.7-4.1c-3.2-1.3-6.5-2.6-9.7-3.9c-3.1-1.2-6.1-2.3-9.2-3.4c-4.3-1.5-8.6-2.9-12.9-4.2
	c-4.3-1.3-8.7-2.6-13.2-3.7c-4.4-1.1-8.8-2.2-13.2-3.2l-1,4.4L569.9,31z"/>
<path class="st0" d="M751.7,134.2c-5.7-6.7-11.8-13.3-18.1-19.6l-3.1,3.2c6.3,6.3,12.2,12.7,17.9,19.4L751.7,134.2z"/>
<path class="st0" d="M230.6,161.7c2.6-3.6,5.3-7.2,8-10.8s5.6-7.1,8.5-10.5c2.9-3.4,5.8-6.8,8.9-10.1c2.2-2.4,4.4-4.7,6.6-7
	c2.4-2.5,4.9-4.9,7.3-7.3l-3.1-3.2c-2.5,2.4-5,4.9-7.4,7.4c-2.3,2.3-4.5,4.7-6.7,7.1c-3.1,3.3-6.1,6.7-9,10.2
	c-2.9,3.5-5.8,7-8.6,10.7c-2.8,3.6-5.5,7.2-8.1,10.9L230.6,161.7L230.6,161.7z"/>
<path class="st3" d="M824.8,422.2c5.9-25.7,8.7-52,8.3-78.3"/>
<path class="st3" d="M172.4,411.1c-3.4-18.9-5.1-38.2-5.1-57.4"/>
<path class="st3" d="M789.7,195.6c-8.1-15.5-17.5-30.3-28-44.3"/>
<path class="st3" d="M287.7,150.3c-10.2,11.4-19.7,23.5-28.2,36.2"/>
</svg>
