<svg xmlns="http://www.w3.org/2000/svg" viewBox="0 0 136.49 27.36"><defs><style>.cls-1,.cls-2{fill:#fff;}.cls-2{stroke:#fff;stroke-miterlimit:10;stroke-width:0.35px;}</style></defs><g id="Layer_2" data-name="Layer 2"><g id="Layer_1-2" data-name="Layer 1"><polygon class="cls-1" points="5.71 1.11 7.4 1.11 7.4 10.38 5.71 10.38 5.71 6.28 1.69 6.28 1.69 10.38 0 10.38 0 1.11 1.69 1.11 1.69 4.82 5.71 4.82 5.71 1.11"/><path class="cls-1" d="M14.39,10.17c-.32.08-.72.16-1.22.25a10.48,10.48,0,0,1-1.65.12,3.64,3.64,0,0,1-1.41-.24,2.23,2.23,0,0,1-.91-.67,2.69,2.69,0,0,1-.49-1,5.89,5.89,0,0,1-.14-1.3V3.39h1.62V7.05a3,3,0,0,0,.32,1.61,1.29,1.29,0,0,0,1.15.48l.62,0,.49-.06V3.39h1.62Z"/><path class="cls-1" d="M17.9,10.52a4.77,4.77,0,0,1-1.2-.16,1.81,1.81,0,0,1-.76-.43,1.49,1.49,0,0,1-.39-.68,3.28,3.28,0,0,1-.12-.93v-8L17.05,0V8a2.27,2.27,0,0,0,.05.5.78.78,0,0,0,.17.34.7.7,0,0,0,.33.21,2.51,2.51,0,0,0,.52.12Z"/><path class="cls-1" d="M20.92,10.52a4.84,4.84,0,0,1-1.2-.16A1.81,1.81,0,0,1,19,9.93a1.49,1.49,0,0,1-.39-.68,3.3,3.3,0,0,1-.11-.93v-8L20.07,0V8a2.27,2.27,0,0,0,.05.5.78.78,0,0,0,.17.34.7.7,0,0,0,.33.21,2.51,2.51,0,0,0,.52.12Z"/><polygon class="cls-1" points="22.59 1.11 21.68 1.11 21.68 10.38 26.95 10.38 26.95 9.59 22.59 9.59 22.59 1.11"/><path class="cls-1" d="M27.92.71a.65.65,0,0,0-.46.18.66.66,0,0,0-.19.49.68.68,0,0,0,.19.49.65.65,0,0,0,.46.18.63.63,0,0,0,.45-.18.64.64,0,0,0,.19-.49.63.63,0,0,0-.64-.67m.44,2.76h-.87v6.91h.87Z"/><path class="cls-1" d="M34.76,3.47h-.87c-.11.47-.24,1-.39,1.51S33.17,6.06,33,6.59s-.38,1-.57,1.54-.39.93-.58,1.32c-.19-.39-.38-.83-.58-1.32s-.39-1-.57-1.54S30.34,5.52,30.18,5s-.29-1-.4-1.51h-.92c.16.63.34,1.25.54,1.87s.41,1.22.63,1.8.44,1.16.68,1.7.46,1.06.7,1.54h.81c.22-.48.45-1,.69-1.54s.47-1.11.69-1.7S34,6,34.22,5.34s.38-1.24.54-1.87"/><path class="cls-1" d="M37.71,3.3a2.88,2.88,0,0,0-1.12.23,2.61,2.61,0,0,0-1,.67A3.41,3.41,0,0,0,35,5.33a4.27,4.27,0,0,0-.27,1.59,5.53,5.53,0,0,0,.19,1.45,3.11,3.11,0,0,0,.6,1.14,2.83,2.83,0,0,0,1.06.75,4,4,0,0,0,1.55.27,4.3,4.3,0,0,0,1.21-.15,4,4,0,0,0,.71-.25l-.16-.75a5.53,5.53,0,0,1-.61.23,3.73,3.73,0,0,1-1.12.13,2.35,2.35,0,0,1-1.87-.68,3,3,0,0,1-.63-2h4.85a1.12,1.12,0,0,0,0-.2,1.48,1.48,0,0,0,0-.21,3.75,3.75,0,0,0-.75-2.56,2.63,2.63,0,0,0-2-.83M35.63,6.37a2.88,2.88,0,0,1,.19-.87,2.29,2.29,0,0,1,.42-.73,2.1,2.1,0,0,1,.65-.5,1.72,1.72,0,0,1,.83-.19,1.66,1.66,0,0,1,1.37.6,2.72,2.72,0,0,1,.5,1.69Z"/><path class="cls-2" d="M51.76,2.26H48.9v7.87H47.8V2.26H44.93v-1h6.83Z"/><path class="cls-2" d="M54.68,2.26V5.11h4.68v1H54.68V9.09H60v1h-6.4V1.22H60v1Z"/><path class="cls-2" d="M68.53,8.62,67.1,10.13H63.45L61.81,8.41V2.94l1.64-1.72H67l1.44,1.51-.74.77L66.52,2.26H63.94l-1,1.07V8l1,1.07h2.67L67.8,7.85Z"/><path class="cls-2" d="M77.2,1.22v8.91H76.1v-4H71.47v4h-1.1V1.22h1.1V5.09H76.1V1.22Z"/><path class="cls-2" d="M88.36,7.9h-4.1l-.86,2.23H82.27l3.54-8.91h1l3.54,8.91H89.22Zm-.4-1L86.31,2.64,84.66,6.87Z"/><path class="cls-2" d="M101.56,1.22l-2.44,8.91h-1L96.2,3.2l-1.9,6.93h-1L90.81,1.22H92l1.89,7,1.91-7h.92l1.92,7,1.88-7Z"/><path class="cls-2" d="M108.06,7.9H104l-.86,2.23H102l3.53-8.91h1l3.54,8.91h-1.17Zm-.4-1L106,2.64l-1.65,4.23Z"/><path class="cls-2" d="M117.79,10.13l-2-3.67H113v3.67h-1.1V1.22h5.38l1.33,1.41V5.06l-1.33,1.4h-.23l2,3.67ZM113,5.43h3.79l.72-.76V3l-.72-.76H113Z"/><path class="cls-2" d="M127.73,2.94V8.41l-1.64,1.72h-5.16V1.22h5.16Zm-1.1.39-1-1.07H122V9.09h3.57l1-1.07Z"/><path class="cls-2" d="M136.32,6.55V8.66l-1.4,1.47h-4.09l-1.37-1.44.73-.78,1.13,1.18h3.11l.79-.82V7l-.67-.7L130.93,6l-1.26-1.32v-2l1.4-1.47h3.76l1.32,1.39-.73.77-1.08-1.12h-2.79l-.78.82V4.27l.66.7,3.62.26Z"/><path class="cls-1" d="M10.76,14.33v13H9.51V21.3H1.77v6.06H.52v-13H1.77v5.84H9.51V14.33Z"/><path class="cls-1" d="M24.56,14.33V24.87l-2.47,2.49h-5l-2.49-2.49V14.33h1.25V24.45l1.78,1.78h3.89l1.84-1.84V14.33Z"/><path class="cls-1" d="M41,27.36H39.76V16.69l-4.69,8.68H34.3l-4.68-8.68V27.36h-1.2v-13h1.26l5,9.33,5-9.33H41Z"/><path class="cls-1" d="M55.21,22.55v2.8l-2,2H45v-13h7.78l2,2v2.95l-1.44,1.44Zm-8.93-2.36h6l1.28-1.28V16.76l-1.3-1.3h-6ZM54,24.93V23l-1.65-1.65h-6v4.91h6.38Z"/><path class="cls-1" d="M59.89,15.46v4.73h7.38v1.13H59.89v4.91h8.34v1.13H58.65v-13h9.58v1.13Z"/><path class="cls-1" d="M80.79,27.36l-3.15-5.58H72.76v5.58H71.51v-13h8l2,2v3.43l-2,2H79l3.17,5.58Zm-8-6.71H79l1.31-1.3V16.76L79,15.46H72.76Z"/><path class="cls-1" d="M91.31,23.3v3h7.63v1.09H90.09V22.88l1.8-1.79,4.6-.95,1.24-1.25V16.78l-1.36-1.36H92.58l-1.69,1.71-.8-.81,2-2h4.81l2,2v2.91l-1.8,1.8-4.6,1Z"/><path class="cls-1" d="M111.44,16.55v8.59l-2.22,2.22h-4.66l-2.22-2.22V16.55l2.22-2.22h4.66Zm-1.23,8.19V17l-1.53-1.53h-3.6L103.56,17v7.79l1.52,1.53h3.6Z"/><path class="cls-1" d="M116.12,23.3v3h7.63v1.09h-8.86V22.88l1.8-1.79,4.6-.95,1.25-1.25V16.78l-1.36-1.36h-3.8l-1.68,1.71-.81-.81,2-2h4.81l2,2v2.91l-1.8,1.8-4.6,1Z"/><path class="cls-1" d="M136.25,16.55v8.59L134,27.36h-4.65l-2.23-2.22V16.55l2.23-2.22H134ZM135,24.74V17l-1.53-1.53h-3.61L128.37,17v7.79l1.51,1.53h3.61Z"/></g></g></svg>