<svg xmlns="http://www.w3.org/2000/svg" viewBox="0 0 1581.62 1001.11"><title>Asset 4</title><g id="Layer_2" data-name="Layer 2"><g id="Layer_1-2" data-name="Layer 1"><path style="fill: #fff;" d="M1581.62,517.16v23a39.63,39.63,0,0,0-1,5.85,561.29,561.29,0,0,1-8.24,82.83c-10.55,61.65-30,120.22-60.29,175-27.42,49.7-62.14,93.38-107.15,128.45-57.19,44.55-123,64.78-194.51,68.32-31.16,1.55-62.21-1-93-6.11a641.38,641.38,0,0,1-137.42-38.77c-57.13-23.34-113.68-48.08-170.36-72.49-54.88-23.63-110.1-46.22-168.18-61-24-6.1-48.21-11.65-72.95-13.18a423.07,423.07,0,0,0-57.85-.12c-25.63,1.92-51.29,4.86-76.6,9.31-44.48,7.8-88.68,17.19-133,25.7-32.87,6.31-65.95,8.18-99.27,3.85-32.83-4.28-63.4-14.8-91.16-33C69.54,788,42.43,750,25,704.71c-23.26-60.35-28.7-123.07-22.76-187a452.7,452.7,0,0,1,18.67-92.65c17.27-55.54,44.74-105.15,84.55-147.83C147.91,231.7,199,199.16,256.21,175.4,315,151,376.56,136.28,438.65,123.57c57.62-11.8,115-24.65,171.28-41.8S722.8,47.37,779.48,31A784.34,784.34,0,0,1,962.49.74a691.91,691.91,0,0,1,151.64,9.5c62.62,11,122.66,29.84,179.59,58.23,70.3,35.05,131.23,82,180.3,143.67,68.49,86.06,102.19,184.8,106.45,294.17C1580.61,509.93,1581.22,513.54,1581.62,517.16Z"/></g></g></svg>