<svg xmlns="http://www.w3.org/2000/svg" xmlns:xlink="http://www.w3.org/1999/xlink" viewBox="0 0 513.93 188.52"><defs><style>.cls-1{fill:none;}.cls-2{clip-path:url(#clip-path);}.cls-3{clip-path:url(#clip-path-2);}.cls-4{fill:url(#linear-gradient);}.cls-5{clip-path:url(#clip-path-3);}.cls-6{fill:url(#linear-gradient-2);}.cls-7{clip-path:url(#clip-path-4);}.cls-8{fill:url(#linear-gradient-3);}.cls-9{clip-path:url(#clip-path-5);}.cls-10{fill:url(#linear-gradient-4);}.cls-11{clip-path:url(#clip-path-6);}.cls-12{fill:url(#linear-gradient-5);}.cls-13{clip-path:url(#clip-path-7);}.cls-14{fill:url(#linear-gradient-6);}.cls-15{clip-path:url(#clip-path-8);}.cls-16{fill:url(#linear-gradient-7);}.cls-17{clip-path:url(#clip-path-9);}.cls-18{fill:url(#linear-gradient-8);}.cls-19{clip-path:url(#clip-path-10);}.cls-20{fill:url(#linear-gradient-9);}.cls-21{fill:#9c9c9b;}</style><clipPath id="clip-path" transform="translate(11.76 3.58)"><rect class="cls-1" width="491" height="168.32"/></clipPath><clipPath id="clip-path-2" transform="translate(11.76 3.58)"><polygon class="cls-1" points="5.14 13.56 5.14 27.29 21.52 27.29 21.52 75.61 38.77 75.61 38.77 27.29 55.32 27.29 55.32 13.56 55.32 13.56 5.14 13.56"/></clipPath><linearGradient id="linear-gradient" x1="1383.58" y1="2070.41" x2="1384.4" y2="2070.41" gradientTransform="translate(1126101.17 -752496.24) rotate(90) scale(543.89)" gradientUnits="userSpaceOnUse"><stop offset="0" stop-color="#dd2a8a"/><stop offset="1" stop-color="#e05b0b"/></linearGradient><clipPath id="clip-path-3" transform="translate(11.76 3.58)"><polygon class="cls-1" points="64.38 13.56 64.38 13.56 64.38 75.61 64.38 75.61 104.08 75.61 104.08 75.61 104.08 61.8 81.63 61.8 81.63 50.62 101.44 50.62 101.44 37.5 81.63 37.5 81.63 27.38 104.08 27.38 104.08 13.56 104.08 13.56 64.38 13.56"/></clipPath><linearGradient id="linear-gradient-2" x1="1383.58" y1="2070.42" x2="1384.4" y2="2070.42" gradientTransform="translate(1126158.34 -752548.01) rotate(90) scale(543.89)" xlink:href="#linear-gradient"/><clipPath id="clip-path-4" transform="translate(11.76 3.58)"><path class="cls-1" d="M113.14,44.45c0,18.58,12.24,31.61,30.9,31.61,15.58,0,26.67-9,29.75-23.07H155.22a12.13,12.13,0,0,1-11.45,7.22c-7.92,0-13.11-6.16-13.11-15.76s5.19-15.67,13.11-15.67A12.15,12.15,0,0,1,155.22,36h18.57C170.71,21.92,159.62,12.94,144,12.94c-18.66,0-30.9,13-30.9,31.51"/></clipPath><linearGradient id="linear-gradient-3" x1="1383.58" y1="2070.43" x2="1384.4" y2="2070.43" gradientTransform="translate(1126221.12 -752604.81) rotate(90) scale(543.89)" xlink:href="#linear-gradient"/><clipPath id="clip-path-5" transform="translate(11.76 3.58)"><polygon class="cls-1" points="222.91 13.56 222.91 36.88 201.87 36.88 201.87 13.56 184.61 13.56 184.61 75.61 201.87 75.61 201.87 50.7 222.91 50.7 222.91 75.61 240.16 75.61 240.16 13.56 240.16 13.56 222.91 13.56"/></clipPath><linearGradient id="linear-gradient-4" x1="1383.58" y1="2070.43" x2="1384.4" y2="2070.43" gradientTransform="translate(1126294.03 -752670.9) rotate(90) scale(543.89)" xlink:href="#linear-gradient"/><clipPath id="clip-path-6" transform="translate(11.76 3.58)"><polygon class="cls-1" points="92.88 99.3 85.66 141.38 76.15 99.3 57.23 99.3 47.45 141.73 40.24 99.3 21.58 99.3 36.4 160.44 58.05 160.44 66.56 123.34 74.89 160.44 96.54 160.44 111.54 99.3 92.88 99.3"/></clipPath><linearGradient id="linear-gradient-5" x1="1383.58" y1="2070.39" x2="1384.4" y2="2070.39" gradientTransform="matrix(0, 543.89, -543.89, 0, 1126122.63, -752470.1)" xlink:href="#linear-gradient"/><clipPath id="clip-path-7" transform="translate(11.76 3.58)"><polygon class="cls-1" points="121.47 99.3 121.47 99.3 121.47 160.44 161.18 160.44 161.18 160.44 161.18 147.54 138.73 147.54 138.73 136.36 158.53 136.36 158.53 123.25 138.73 123.25 138.73 113.13 161.18 113.13 161.18 99.3 121.47 99.3"/></clipPath><linearGradient id="linear-gradient-6" x1="1383.58" y1="2070.4" x2="1384.4" y2="2070.4" gradientTransform="matrix(0, 543.89, -543.89, 0, 1126201.78, -752541.82)" xlink:href="#linear-gradient"/><clipPath id="clip-path-8" transform="translate(11.76 3.58)"><polygon class="cls-1" points="172.35 99.3 172.35 99.31 172.35 160.44 212.05 160.44 212.05 160.44 212.05 147.54 189.6 147.54 189.6 136.36 209.41 136.36 209.41 123.25 189.6 123.25 189.6 113.13 212.05 113.13 212.05 99.3 172.35 99.3"/></clipPath><linearGradient id="linear-gradient-7" x1="1383.58" y1="2070.4" x2="1384.4" y2="2070.4" gradientTransform="translate(1126255.72 -752590.49) rotate(90) scale(543.89)" xlink:href="#linear-gradient"/><clipPath id="clip-path-9" transform="translate(11.76 3.58)"><polygon class="cls-1" points="259.76 99.3 240.48 126.06 240.48 99.3 223.23 99.3 223.23 160.44 240.48 160.44 240.48 134.16 259.27 160.44 280.1 160.44 256.85 129.41 279.65 99.3 259.76 99.3"/></clipPath><linearGradient id="linear-gradient-8" x1="1383.58" y1="2070.41" x2="1384.4" y2="2070.41" gradientTransform="translate(1126318.65 -752647.55) rotate(90) scale(543.89)" xlink:href="#linear-gradient"/><clipPath id="clip-path-10" transform="translate(11.76 3.58)"><polygon class="cls-1" points="443.62 99.3 466.42 129.41 443.16 160.44 463.99 160.44 482.79 134.16 485.53 130.26 485.53 130.17 482.79 126.06 463.51 99.3 443.62 99.3"/></clipPath><linearGradient id="linear-gradient-9" x1="1383.58" y1="2070.43" x2="1384.4" y2="2070.43" gradientTransform="matrix(0, 543.89, -543.89, 0, 1126543.63, -752851.79)" xlink:href="#linear-gradient"/></defs><title>techweek</title><g id="Layer_2" data-name="Layer 2"><g id="Layer_1-2" data-name="Layer 1"><g class="cls-2"><g class="cls-3"><rect class="cls-4" x="-6.64" y="11.72" width="73.75" height="65.73" transform="translate(-9.35 64.49) rotate(-73.5)"/></g><g class="cls-5"><rect class="cls-6" x="48.84" y="16.74" width="70.78" height="55.69" transform="matrix(0.28, -0.96, 0.96, 0.28, 29.31, 116.26)"/></g><g class="cls-7"><rect class="cls-8" x="104.6" y="6.46" width="77.74" height="76.08" transform="translate(71.81 173) rotate(-73.5)"/></g><g class="cls-9"><rect class="cls-10" x="174.75" y="9.14" width="75.28" height="70.88" transform="translate(121.07 239.14) rotate(-73.5)"/></g><g class="cls-11"><rect class="cls-12" x="24.47" y="78.06" width="84.17" height="103.62" transform="translate(-65.11 160.38) rotate(-73.5)"/></g><g class="cls-13"><rect class="cls-14" x="106.38" y="102.16" width="69.9" height="55.43" transform="translate(-11.58 232.07) rotate(-73.5)"/></g><g class="cls-15"><rect class="cls-16" x="157.25" y="102.16" width="69.89" height="55.43" transform="translate(24.84 280.85) rotate(-73.5)"/></g><g class="cls-17"><rect class="cls-18" x="214.28" y="93.92" width="74.77" height="71.9" transform="translate(67.42 337.86) rotate(-73.5)"/></g><g class="cls-19"><rect class="cls-20" x="429.02" y="100.88" width="70.65" height="57.99" transform="translate(219.7 541.79) rotate(-73.5)"/></g><polygon class="cls-21" points="318.33 134.47 310.1 134.47 310.1 143.41 304.81 143.41 304.81 121.7 310.1 121.7 310.1 130.21 318.33 130.21 318.33 121.7 323.61 121.7 323.61 143.41 318.33 143.41 318.33 134.47"/><g class="cls-2"><path class="cls-21" d="M318.67,118.13H324v13c0,2.57,1.27,4.06,3.77,4.06s3.83-1.49,3.83-4.06v-13h5.29v13c0,6-4.2,9-9.22,9s-9-3-9-9Z" transform="translate(11.76 3.58)"/><polygon class="cls-21" points="355.42 121.7 361.67 121.7 367.76 136.73 373.79 121.7 380 121.7 380 143.41 374.71 143.41 374.71 130.39 369.86 143.41 365.59 143.41 360.7 130.36 360.7 143.41 355.42 143.41 355.42 121.7"/><path class="cls-21" d="M384.28,130.77h-3.84v4.8h3.9c1.76,0,2.78-.81,2.78-2.35s-1.08-2.45-2.84-2.45m-.38-8.41h-3.46v4.55h3.46c1.74,0,2.69-.78,2.69-2.26s-.95-2.29-2.69-2.29m1.36,17.47H375.15v-21.7h9.77c4.43,0,7.05,2.19,7.05,5.62a4.92,4.92,0,0,1-3.68,4.95,5.27,5.27,0,0,1,4.18,5.23c0,3.59-2.63,5.9-7.21,5.9" transform="translate(11.76 3.58)"/><polygon class="cls-21" points="423.68 125.94 415.67 125.94 415.67 130.33 422.76 130.33 422.76 134.41 415.67 134.41 415.67 139.17 423.68 139.17 423.68 143.41 410.38 143.41 410.38 121.7 423.68 121.7 423.68 125.94"/><path class="cls-21" d="M427,122.52h-3.28v5.38H427c2,0,2.91-1,2.91-2.72s-.93-2.66-2.91-2.66m.31-4.39c5.32,0,8,3.06,8,6.83a6.33,6.33,0,0,1-4.83,6.28l5,8.59h-6L425,131.64h-1.27v8.19h-5.28v-21.7Z" transform="translate(11.76 3.58)"/></g></g></g></g></svg>